<svg id="logo" xmlns="http://www.w3.org/2000/svg" width="63.474" height="39.068" viewBox="0 0 63.474 39.068">
  <path id="Tracé_1" data-name="Tracé 1" d="M232.962,360.614h9.932l-1.766,2.35v25.162l1.766,2.866h-9.932l1.692-2.866V362.964Z" transform="translate(-232.962 -351.924)" fill="#fff"/>
  <ellipse id="Ellipse_1" data-name="Ellipse 1" cx="3.751" cy="3.751" rx="3.751" ry="3.751" transform="translate(1.176)" fill="#fff"/>
  <path id="Tracé_2" data-name="Tracé 2" d="M255.241,390.851l7.133-30.492h5.93l-7.133,30.492Z" transform="translate(-241.207 -351.783)" fill="#fafafa"/>
  <path id="Tracé_12" data-name="Tracé 12" d="M268.442,390.851l-7.209-30.492h-5.993l7.209,30.492Z" transform="translate(-231.276 -351.783)" fill="#fafafa"/>
  <path id="Tracé_13" data-name="Tracé 13" d="M232.962,360.614h8.072l-1.435,2.35v25.162l1.435,2.866h-8.072l1.375-2.866V362.964Z" transform="translate(-189.902 -351.924)" fill="#fff"/>
  <path id="Tracé_14" data-name="Tracé 14" d="M232.962,360.664h7.25s5.092,6.436,5.092,14.1-5.582,16.225-5.582,16.225h-6.76l2.859-2.866a25.2,25.2,0,0,0,4.079-13.359c0-7.648-4.079-11.8-4.079-11.8Z" transform="translate(-181.83 -351.924)" fill="#fff"/>
</svg>
